<svg id="Layer_1" data-name="Layer 1" xmlns="http://www.w3.org/2000/svg" xmlns:xlink="http://www.w3.org/1999/xlink" viewBox="0 0 731.12 509.42"><defs><style>.cls-1{fill:#fff;}.cls-2{fill:url(#linear-gradient);}</style><linearGradient id="linear-gradient" x1="135.69" y1="500" x2="866.81" y2="500" gradientUnits="userSpaceOnUse"><stop offset="0" stop-color="#fe5294"/><stop offset="1" stop-color="#f77062"/><stop offset="1" stop-color="#fe5196"/></linearGradient></defs><path class="cls-1" d="M586.62,274.84l19.58-19.58a34,34,0,0,1,48.13,0L864.19,465.12a.42.42,0,0,1,0,.6l-67.11,67.11a.43.43,0,0,1-.6,0L586.62,323A34,34,0,0,1,586.62,274.84Z" transform="translate(-135.69 -245.29)"/><polygon class="cls-1" points="731.13 219.84 434.5 509.42 684.57 178.8 731.13 219.84"/><path class="cls-1" d="M163.6,569.9c-38.35-30.56-37-84.32,2.9-115.17l264-204.11h0Q297.06,410.27,163.6,569.9Z" transform="translate(-135.69 -245.29)"/><path class="cls-1" d="M352.19,742,154.55,561.63a8.74,8.74,0,0,1-.57-12.35l45.84-50.22L403.93,685.35a26.36,26.36,0,0,1,1.69,37.23l-16.2,17.75A26.35,26.35,0,0,1,352.19,742Z" transform="translate(-135.69 -245.29)"/><circle class="cls-1" cx="364.28" cy="252.27" r="105.52"/><path class="cls-2" d="M586.62,274.84l19.58-19.58a34,34,0,0,1,48.13,0L864.19,465.12a.42.42,0,0,1,0,.6l-67.11,67.11a.43.43,0,0,1-.6,0L586.62,323A34,34,0,0,1,586.62,274.84Z" transform="translate(-135.69 -245.29)"/><line class="cls-2" x1="707.85" y1="199.32" x2="434.5" y2="509.42"/><polygon class="cls-2" points="731.13 219.84 434.5 509.42 684.57 178.8 731.13 219.84"/><path class="cls-2" d="M163.6,569.9c-38.35-30.56-37-84.32,2.9-115.17l264-204.11h0Q297.06,410.27,163.6,569.9Z" transform="translate(-135.69 -245.29)"/><path class="cls-2" d="M352.19,742,154.55,561.63a8.74,8.74,0,0,1-.57-12.35l45.84-50.22L403.93,685.35a26.36,26.36,0,0,1,1.69,37.23l-16.2,17.75A26.35,26.35,0,0,1,352.19,742Z" transform="translate(-135.69 -245.29)"/><circle class="cls-2" cx="364.28" cy="252.27" r="105.52"/></svg>