<svg width="162" height="26" viewBox="0 0 162 26" fill="none" xmlns="http://www.w3.org/2000/svg">
<path d="M19.11 2.74V25H13.68V23.38C12.62 24.64 11.03 25.27 8.91 25.27C7.43 25.27 6.08 24.93 4.86 24.25C3.64 23.55 2.67 22.56 1.95 21.28C1.25 20 0.9 18.52 0.9 16.84C0.9 15.16 1.25 13.69 1.95 12.43C2.67 11.15 3.64 10.17 4.86 9.49C6.08 8.81 7.43 8.47 8.91 8.47C10.85 8.47 12.35 9.03 13.41 10.15V2.74H19.11ZM10.11 20.74C11.09 20.74 11.9 20.4 12.54 19.72C13.18 19.02 13.5 18.06 13.5 16.84C13.5 15.64 13.18 14.7 12.54 14.02C11.92 13.34 11.11 13 10.11 13C9.11 13 8.29 13.34 7.65 14.02C7.01 14.7 6.69 15.64 6.69 16.84C6.69 18.06 7.01 19.02 7.65 19.72C8.29 20.4 9.11 20.74 10.11 20.74ZM37.5973 16.9C37.5973 16.94 37.5673 17.41 37.5073 18.31H25.6873C25.9273 19.15 26.3873 19.8 27.0673 20.26C27.7673 20.7 28.6373 20.92 29.6773 20.92C30.4573 20.92 31.1273 20.81 31.6873 20.59C32.2673 20.37 32.8473 20.01 33.4273 19.51L36.4273 22.63C34.8473 24.39 32.5373 25.27 29.4973 25.27C27.5973 25.27 25.9273 24.91 24.4873 24.19C23.0473 23.47 21.9273 22.47 21.1273 21.19C20.3473 19.91 19.9573 18.46 19.9573 16.84C19.9573 15.24 20.3373 13.81 21.0973 12.55C21.8773 11.27 22.9473 10.27 24.3073 9.55C25.6673 8.83 27.1973 8.47 28.8973 8.47C30.5173 8.47 31.9873 8.81 33.3073 9.49C34.6273 10.15 35.6673 11.12 36.4273 12.4C37.2073 13.66 37.5973 15.16 37.5973 16.9ZM28.9273 12.52C28.0473 12.52 27.3073 12.77 26.7073 13.27C26.1273 13.77 25.7573 14.45 25.5973 15.31H32.2573C32.0973 14.45 31.7173 13.77 31.1173 13.27C30.5373 12.77 29.8073 12.52 28.9273 12.52Z" fill="url(#paint0_linear)"/>
<path d="M48.2953 4C50.1953 4 51.8453 4.32 53.2453 4.96C54.6453 5.58 55.7253 6.48 56.4853 7.66C57.2453 8.82 57.6253 10.19 57.6253 11.77C57.6253 13.35 57.2453 14.72 56.4853 15.88C55.7253 17.04 54.6453 17.94 53.2453 18.58C51.8453 19.2 50.1953 19.51 48.2953 19.51H44.6353V25H38.6953V4H48.2953ZM47.9353 14.83C49.1553 14.83 50.0753 14.57 50.6953 14.05C51.3153 13.51 51.6253 12.75 51.6253 11.77C51.6253 10.79 51.3153 10.03 50.6953 9.49C50.0753 8.95 49.1553 8.68 47.9353 8.68H44.6353V14.83H47.9353ZM66.5822 25.27C64.8422 25.27 63.2722 24.91 61.8722 24.19C60.4722 23.47 59.3722 22.47 58.5722 21.19C57.7922 19.91 57.4022 18.46 57.4022 16.84C57.4022 15.24 57.7922 13.8 58.5722 12.52C59.3722 11.24 60.4622 10.25 61.8422 9.55C63.2422 8.83 64.8222 8.47 66.5822 8.47C68.3422 8.47 69.9222 8.83 71.3222 9.55C72.7222 10.25 73.8122 11.24 74.5922 12.52C75.3722 13.78 75.7622 15.22 75.7622 16.84C75.7622 18.46 75.3722 19.91 74.5922 21.19C73.8122 22.47 72.7222 23.47 71.3222 24.19C69.9222 24.91 68.3422 25.27 66.5822 25.27ZM66.5822 20.74C67.5822 20.74 68.4022 20.4 69.0422 19.72C69.6822 19.02 70.0022 18.06 70.0022 16.84C70.0022 15.64 69.6822 14.7 69.0422 14.02C68.4022 13.34 67.5822 13 66.5822 13C65.5822 13 64.7622 13.34 64.1222 14.02C63.4822 14.7 63.1622 15.64 63.1622 16.84C63.1622 18.06 63.4822 19.02 64.1222 19.72C64.7622 20.4 65.5822 20.74 66.5822 20.74ZM82.0327 10.69C82.6127 9.95 83.3627 9.4 84.2827 9.04C85.2227 8.66 86.2927 8.47 87.4927 8.47V13.6C86.9727 13.54 86.5427 13.51 86.2027 13.51C84.9827 13.51 84.0227 13.84 83.3227 14.5C82.6427 15.16 82.3027 16.17 82.3027 17.53V25H76.6027V8.74H82.0327V10.69ZM99.7629 24.34C99.2829 24.64 98.6929 24.87 97.9929 25.03C97.3129 25.19 96.5829 25.27 95.8029 25.27C93.6829 25.27 92.0529 24.75 90.9129 23.71C89.7729 22.67 89.2029 21.12 89.2029 19.06V13.6H86.8329V9.34H89.2029V5.11H94.9029V9.34H98.6229V13.6H94.9029V19C94.9029 19.58 95.0529 20.04 95.3529 20.38C95.6729 20.7 96.0929 20.86 96.6129 20.86C97.2729 20.86 97.8529 20.69 98.3529 20.35L99.7629 24.34ZM106.371 9.34H110.241V13.6H106.521V25H100.821V13.6H98.4509V9.34H100.821V8.92C100.821 6.94 101.411 5.37 102.591 4.21C103.791 3.05 105.461 2.47 107.601 2.47C108.321 2.47 109.021 2.54 109.701 2.68C110.381 2.82 110.941 3.03 111.381 3.31L109.971 7.33C109.411 7.01 108.841 6.85 108.261 6.85C107.661 6.85 107.191 7.03 106.851 7.39C106.531 7.75 106.371 8.28 106.371 8.98V9.34ZM118.533 25.27C116.793 25.27 115.223 24.91 113.823 24.19C112.423 23.47 111.323 22.47 110.523 21.19C109.743 19.91 109.353 18.46 109.353 16.84C109.353 15.24 109.743 13.8 110.523 12.52C111.323 11.24 112.413 10.25 113.793 9.55C115.193 8.83 116.773 8.47 118.533 8.47C120.293 8.47 121.873 8.83 123.273 9.55C124.673 10.25 125.763 11.24 126.543 12.52C127.323 13.78 127.713 15.22 127.713 16.84C127.713 18.46 127.323 19.91 126.543 21.19C125.763 22.47 124.673 23.47 123.273 24.19C121.873 24.91 120.293 25.27 118.533 25.27ZM118.533 20.74C119.533 20.74 120.353 20.4 120.993 19.72C121.633 19.02 121.953 18.06 121.953 16.84C121.953 15.64 121.633 14.7 120.993 14.02C120.353 13.34 119.533 13 118.533 13C117.533 13 116.713 13.34 116.073 14.02C115.433 14.7 115.113 15.64 115.113 16.84C115.113 18.06 115.433 19.02 116.073 19.72C116.713 20.4 117.533 20.74 118.533 20.74ZM128.553 2.74H134.253V25H128.553V2.74ZM136.157 8.74H141.857V25H136.157V8.74ZM139.007 6.94C137.967 6.94 137.127 6.65 136.487 6.07C135.847 5.49 135.527 4.77 135.527 3.91C135.527 3.05 135.847 2.33 136.487 1.75C137.127 1.17 137.967 0.879999 139.007 0.879999C140.047 0.879999 140.887 1.16 141.527 1.72C142.167 2.26 142.487 2.96 142.487 3.82C142.487 4.72 142.167 5.47 141.527 6.07C140.887 6.65 140.047 6.94 139.007 6.94ZM151.922 25.27C150.182 25.27 148.612 24.91 147.212 24.19C145.812 23.47 144.712 22.47 143.912 21.19C143.132 19.91 142.742 18.46 142.742 16.84C142.742 15.24 143.132 13.8 143.912 12.52C144.712 11.24 145.802 10.25 147.182 9.55C148.582 8.83 150.162 8.47 151.922 8.47C153.682 8.47 155.262 8.83 156.662 9.55C158.062 10.25 159.152 11.24 159.932 12.52C160.712 13.78 161.102 15.22 161.102 16.84C161.102 18.46 160.712 19.91 159.932 21.19C159.152 22.47 158.062 23.47 156.662 24.19C155.262 24.91 153.682 25.27 151.922 25.27ZM151.922 20.74C152.922 20.74 153.742 20.4 154.382 19.72C155.022 19.02 155.342 18.06 155.342 16.84C155.342 15.64 155.022 14.7 154.382 14.02C153.742 13.34 152.922 13 151.922 13C150.922 13 150.102 13.34 149.462 14.02C148.822 14.7 148.502 15.64 148.502 16.84C148.502 18.06 148.822 19.02 149.462 19.72C150.102 20.4 150.922 20.74 151.922 20.74Z" fill="white"/>
<defs>
<linearGradient id="paint0_linear" x1="81" y1="-4" x2="81" y2="33" gradientUnits="userSpaceOnUse">
<stop stop-color="#FB538F"/>
<stop offset="1" stop-color="#EF7372"/>
</linearGradient>
</defs>
</svg>
